<?xml version="1.0" encoding="UTF-8" standalone="no"?><!DOCTYPE svg PUBLIC "-//W3C//DTD SVG 1.1//EN" "http://www.w3.org/Graphics/SVG/1.1/DTD/svg11.dtd"><svg width="100%" height="100%" viewBox="0 0 3200 3200" version="1.1" xmlns="http://www.w3.org/2000/svg" xmlns:xlink="http://www.w3.org/1999/xlink" xml:space="preserve" xmlns:serif="http://www.serif.com/" style="fill-rule:evenodd;clip-rule:evenodd;stroke-linecap:round;stroke-linejoin:round;stroke-miterlimit:1.5;"><g><path d="M2679.53,741.833l0,1716.33c0,297.9 -241.863,539.758 -539.762,539.758l-1079.53,0c-297.899,0 -539.762,-241.858 -539.762,-539.758l0,-1716.33c0,-297.9 241.863,-539.758 539.763,-539.758l1079.53,-0c297.9,-0 539.762,241.858 539.762,539.758Z" style="fill:none;stroke:#000;stroke-width:176.54px;"/><g><g><rect x="922.142" y="797.992" width="557.808" height="119.183"/><rect x="922.142" y="1100.92" width="319.174" height="119.183"/><rect x="1696.84" y="1979.9" width="581.021" height="119.183"/><rect x="922.142" y="2282.83" width="1355.72" height="119.183"/></g></g><path d="M2115.84,872.483l247.454,329.63l-991.759,744.512l-449.391,76.183l201.937,-405.812l991.758,-744.513Z"/></g></svg>