<?xml version="1.0" encoding="UTF-8" standalone="no"?><!DOCTYPE svg PUBLIC "-//W3C//DTD SVG 1.1//EN" "http://www.w3.org/Graphics/SVG/1.1/DTD/svg11.dtd"><svg width="100%" height="100%" viewBox="0 0 13334 13334" version="1.1" xmlns="http://www.w3.org/2000/svg" xmlns:xlink="http://www.w3.org/1999/xlink" xml:space="preserve" xmlns:serif="http://www.serif.com/" style="fill-rule:evenodd;clip-rule:evenodd;stroke-linecap:round;stroke-linejoin:round;stroke-miterlimit:1.5;"><g><path d="M11778.9,3090.98l0,7151.38c0,1241.25 -1145.37,2248.99 -2556.1,2248.99l-5112.23,-0c-1410.73,-0 -2556.1,-1007.74 -2556.1,-2248.99l0,-7151.38c0,-1241.25 1145.37,-2248.99 2556.11,-2248.99l5112.23,-0c1410.74,-0 2556.1,1007.74 2556.1,2248.99l-0.005,0Z" style="fill:#1e1e67;stroke:#000;stroke-width:787.41px;"/><g><path d="M8917.44,5372.56l0,-2786.73l1688.25,-0l0,459.202l-1134.5,0l-0,625.777l985.935,-0l-0,459.202l-985.935,0l-0,783.346l1233.54,0l0,459.203l-1787.29,-0Z" style="fill:#f8f8f8;fill-rule:nonzero;"/><path d="M9796.44,10276c94.615,0 173.206,-9.919 235.773,-29.757c62.568,-19.839 112.164,-47.308 148.789,-82.407c36.625,-35.098 61.805,-74.776 75.539,-119.031c13.735,-44.255 20.602,-89.273 20.602,-135.054c-0,-57.99 -16.787,-109.875 -50.36,-155.656c-33.572,-45.782 -76.302,-86.222 -128.187,-121.32c-51.885,-35.099 -109.875,-67.146 -173.969,-96.141c-64.093,-28.995 -128.187,-55.7 -192.281,-80.117c-85.458,-30.521 -173.968,-65.62 -265.531,-105.297c-91.562,-39.677 -174.731,-90.036 -249.507,-151.078c-74.776,-61.041 -136.581,-136.58 -185.414,-226.617c-48.833,-90.036 -73.25,-202.2 -73.25,-336.492c0,-265.531 86.221,-473.072 258.664,-622.624c172.442,-149.552 409.742,-224.328 711.898,-224.328c173.968,0 325.809,19.839 455.523,59.516c129.713,39.677 238.825,83.932 327.335,132.765l-164.812,434.922c-76.302,-42.729 -160.997,-79.354 -254.086,-109.875c-93.088,-30.521 -200.674,-45.781 -322.757,-45.781c-299.104,-0 -448.656,108.348 -448.656,325.046c-0,54.938 15.26,103.008 45.781,144.211c30.521,41.203 69.435,77.828 116.742,109.875c47.307,32.047 100.719,60.278 160.234,84.695c59.516,24.417 118.268,47.307 176.258,68.672c88.51,33.573 180.836,70.961 276.976,112.164c96.141,41.203 184.651,96.14 265.531,164.812c80.88,68.672 147.263,154.13 199.148,256.375c51.886,102.244 77.828,231.195 77.828,386.851c0,265.531 -86.221,470.783 -258.663,615.757c-172.443,144.974 -434.159,217.461 -785.148,217.461c-235.01,-0 -422.713,-25.18 -563.109,-75.539c-140.395,-50.36 -245.692,-96.904 -315.89,-139.633l164.812,-457.812c82.407,48.833 180.836,94.615 295.289,137.344c114.453,42.729 254.086,64.093 418.898,64.093Z" style="fill:#f8f8f8;fill-rule:nonzero;"/><path d="M7754.43,5132.27c-0,496.23 -130.587,933.696 -391.761,1312.4c-261.173,378.702 -613.758,672.522 -1057.75,881.461c130.586,208.939 276.408,446.171 437.465,711.698c161.057,265.526 324.291,548.464 489.7,848.813c165.41,300.35 328.644,609.405 489.701,927.166c161.057,317.762 311.232,628.993 450.524,933.696l-1149.16,-0c-261.174,-626.817 -546.288,-1227.52 -855.344,-1802.1c-309.055,-574.582 -607.228,-1040.34 -894.519,-1397.28c-52.235,8.706 -128.41,13.059 -228.527,13.059l-1116.52,-0l-0,3186.32l-1083.87,-0l-0,-7965.79c130.586,-34.823 280.761,-65.294 450.524,-91.411c169.763,-26.117 343.878,-45.705 522.347,-58.764c178.468,-13.059 354.761,-23.941 528.876,-32.647c174.116,-8.706 330.82,-13.058 470.113,-13.058c975.047,-0 1708.51,213.291 2200.39,639.875c491.877,426.583 737.816,1062.11 737.816,1906.57Zm-2846.79,-1619.28c-200.233,-0 -393.936,2.176 -581.111,6.529c-187.174,4.353 -319.937,15.235 -398.289,32.647l-0,3121.02l692.109,0c313.409,0 594.17,-21.764 842.285,-65.293c248.115,-43.529 461.407,-124.058 639.875,-241.586c178.469,-117.528 315.585,-278.585 411.348,-483.171c95.764,-204.586 143.646,-472.289 143.646,-803.108c-0,-313.409 -47.882,-570.229 -143.646,-770.462c-95.763,-200.233 -221.997,-359.114 -378.701,-476.642c-156.704,-117.528 -341.702,-200.233 -554.994,-248.115c-213.292,-47.882 -437.466,-71.822 -672.522,-71.822Z" style="fill:#f8f8f8;fill-rule:nonzero;"/></g></g></svg>