<?xml version="1.0" encoding="UTF-8" standalone="no"?><!DOCTYPE svg PUBLIC "-//W3C//DTD SVG 1.1//EN" "http://www.w3.org/Graphics/SVG/1.1/DTD/svg11.dtd"><svg width="100%" height="100%" viewBox="0 0 13334 13334" version="1.1" xmlns="http://www.w3.org/2000/svg" xmlns:xlink="http://www.w3.org/1999/xlink" xml:space="preserve" xmlns:serif="http://www.serif.com/" style="fill-rule:evenodd;clip-rule:evenodd;stroke-linecap:round;stroke-linejoin:round;stroke-miterlimit:1.5;"><g id="Refresh"><path d="M11164.7,3090.97l0,7151.38c0,1241.25 -1007.76,2248.99 -2249.01,2248.99l-4498.04,-0c-1241.25,-0 -2249.01,-1007.74 -2249.01,-2248.99l0,-7151.38c0,-1241.25 1007.76,-2248.99 2249.01,-2248.99l4498.04,0c1241.25,0 2249.01,1007.74 2249.01,2248.99l-0.005,-0Z" style="fill:none;stroke:#000;stroke-width:735.58px;"/><path d="M3957.37,3562.25l13.401,1874.95l1796.2,-537.852l-1809.6,-1337.1Z"/><path d="M4253.47,7657.04l1790.33,557.102l33.527,-1874.7l-1823.85,1317.6Z"/><path d="M4683.89,4472.08c694.746,-620.327 1668.07,-906.107 2607.69,-701.12c1541.71,336.342 2550.73,1843.05 2298.34,3376.74c-245.775,1493.46 -1604.75,2560.3 -3088.65,2477.16c-1754.13,-98.284 -3036.83,-1721.94 -2758.78,-3433.09m1598.6,1049.66c-95.273,-280.51 -140.492,-556.084 -123.85,-734.048c127.581,-1364.29 2118.4,-1723.03 2777.29,-442.711c577.63,1122.41 -455.202,2405.15 -1574.36,2223.3" style="fill:none;stroke:#000;stroke-width:500px;"/></g></svg>